HIERARCHY
ROOT Hips
{
	OFFSET 0.000000 0.000000 0.000000 
	CHANNELS 6 Xposition Yposition Zposition Zrotation Yrotation Xrotation
	JOINT LeftUpLeg
	{
		OFFSET 1.363060 -1.794630 0.839290 
		CHANNELS 3 Zrotation Yrotation Xrotation
		JOINT LeftLeg
		{
			OFFSET 2.448110 -6.726130 0.000000 
			CHANNELS 3 Zrotation Yrotation Xrotation
			JOINT LeftFoot
			{
				OFFSET 2.562200 -7.039590 0.000000 
				CHANNELS 3 Zrotation Yrotation Xrotation
				JOINT LeftToeBase
				{
					OFFSET 0.157640 -0.433110 2.322550 
					CHANNELS 3 Zrotation Yrotation Xrotation
					End Site
					{
						OFFSET 0.000000 0.000000 0.000000 
					}
				}
			}
		}
	}
	JOINT RightUpLeg
	{
		OFFSET -1.305520 -1.794630 0.839290 
		CHANNELS 3 Zrotation Yrotation Xrotation
		JOINT RightLeg
		{
			OFFSET -2.542530 -6.985550 0.000000 
			CHANNELS 3 Zrotation Yrotation Xrotation
			JOINT RightFoot
			{
				OFFSET -2.568260 -7.056230 0.000000 
				CHANNELS 3 Zrotation Yrotation Xrotation
				JOINT RightToeBase
				{
					OFFSET -0.164730 -0.452590 2.363150 
					CHANNELS 3 Zrotation Yrotation Xrotation
					End Site
					{
						OFFSET 0.000000 0.000000 0.000000 
					}
				}
			}
		}
	}
	JOINT Spine
	{
		OFFSET 0.028270 2.035590 -0.193380 
		CHANNELS 3 Zrotation Yrotation Xrotation
		JOINT Spine1
		{
			OFFSET 0.056720 2.048850 -0.042750 
			CHANNELS 3 Zrotation Yrotation Xrotation
			JOINT Neck1
			{
				OFFSET -0.054170 1.746240 0.172020 
				CHANNELS 3 Zrotation Yrotation Xrotation
				JOINT Head
				{
					OFFSET 0.104070 1.761360 -0.123970 
					CHANNELS 3 Zrotation Yrotation Xrotation
					End Site
					{
						OFFSET 0.000000 0.000000 0.000000 
					}
				}
			}
			JOINT LeftArm
			{
				OFFSET 3.362410 1.200890 -0.311210 
				CHANNELS 3 Zrotation Yrotation Xrotation
				JOINT LeftForeArm
				{
					OFFSET 4.983000 -0.000000 -0.000000 
					CHANNELS 3 Zrotation Yrotation Xrotation
					JOINT LeftHand
					{
						OFFSET 3.483560 -0.000000 -0.000000 
						CHANNELS 3 Zrotation Yrotation Xrotation
						JOINT LeftHandIndex1
						{
							OFFSET 0.715260 -0.000000 -0.000000 
							CHANNELS 3 Zrotation Yrotation Xrotation
							End Site
							{
								OFFSET 0.000000 0.000000 0.000000 
							}
						}
					}
				}
			}
			JOINT RightArm
			{
				OFFSET -3.136600 1.374050 -0.404650 
				CHANNELS 3 Zrotation Yrotation Xrotation
				JOINT RightForeArm
				{
					OFFSET -5.241900 -0.000000 -0.000000 
					CHANNELS 3 Zrotation Yrotation Xrotation
					JOINT RightHand
					{
						OFFSET -3.444170 -0.000000 -0.000000 
						CHANNELS 3 Zrotation Yrotation Xrotation
						JOINT RightHandIndex1
						{
							OFFSET -0.622530 -0.000000 -0.000000 
							CHANNELS 3 Zrotation Yrotation Xrotation
							End Site
							{
								OFFSET 0.000000 0.000000 0.000000 
							}
						}
					}
				}
			}
		}
	}
}
MOTION
Frames: 15
Frame Time: 0.041667
11.796462 13.755906 19.649334 178.549660 30.873535 104.050693 39.779948 -27.551868 14.128267 -21.438993 -29.797962 38.864765 29.930461 9.650264 99.790498 2.354600 -9.568700 -27.590900 5.651415 49.684118 -43.600718 32.701767 -34.013588 -8.950886 -34.935942 -17.635041 52.806152 -0.489100 -4.484400 12.443700 30.706276 21.751607 49.360580 25.702964 -9.537623 -31.205389 1.838661 -2.957691 14.684435 -1.380000 0.622800 20.775800 25.361724 20.301858 -0.740888 -3.253709 -0.894396 -5.751282 6.037297 -10.832789 -86.225794 -7.125000 0.000000 0.000000 -44.271890 21.970436 -39.341538 -38.954567 21.436238 -5.837122 -7.304459 10.460994 -66.549407 7.125000 0.000000 0.000000 
11.794022 13.747214 19.622039 166.441783 13.878830 93.276645 9.518069 -73.872286 -26.774939 11.812343 -49.915641 46.845364 13.834916 17.129426 85.623239 2.583500 -9.988100 -28.938100 6.776959 54.391214 -30.667666 31.353358 -32.394711 -3.610421 -34.008742 -18.134245 54.148327 -0.481600 -4.450100 12.346500 -2.887399 20.195363 65.444757 19.088109 10.301349 -23.959417 3.005925 -3.537527 15.437352 -1.239400 0.509400 20.670900 33.296813 29.862209 -7.774368 5.703703 13.345907 -5.816416 5.486863 -10.928589 -83.644048 -7.125000 0.000000 0.000000 -40.488144 -4.326915 -36.035833 -23.381030 6.563365 -5.862651 -6.212847 10.431331 -66.646077 7.125000 0.000000 0.000000 
11.791125 13.740657 19.595964 -178.836908 24.403767 103.939840 0.313035 -50.378354 -6.495169 22.388007 -28.103498 39.334999 33.481955 17.521514 71.651820 2.587600 -9.995400 -28.961800 -0.609909 60.086210 -43.873103 31.248029 -26.643863 -2.122003 -41.886077 -19.401075 62.903356 -0.462100 -4.360300 12.092500 54.018165 -16.616366 -11.797165 -8.925824 31.055059 -14.315866 4.973838 -2.880897 13.521341 -1.112200 -2.514900 20.659300 31.502944 28.700149 -8.463023 17.466538 -2.815364 -5.873651 3.400744 -11.611434 -81.296392 -7.125000 0.000000 0.000000 -46.897598 -1.860055 -37.082666 -18.839483 26.240725 -5.739374 -6.361245 10.591180 -66.771237 7.125000 0.000000 0.000000 
11.792040 13.729678 19.541221 -171.850451 14.230922 112.515810 3.306644 -57.125797 -9.318142 25.240204 36.515094 7.296962 26.769154 10.949866 56.433612 2.560600 -9.947300 -28.806100 -5.177342 52.286437 -41.665136 28.104671 -32.054841 3.609324 -43.798696 -20.392469 64.319217 -0.465600 -4.376800 12.139100 14.617517 -14.469994 41.120713 9.376461 30.000775 -30.494157 -3.375793 -1.644808 22.031617 -0.937600 -2.651900 20.597600 32.495113 -8.331982 -8.772120 -9.506858 -13.231298 -5.717745 4.714366 -11.106977 -77.083400 -7.125000 0.000000 0.000000 -55.352578 -28.269168 -34.995162 -27.832557 1.592386 -5.764532 -5.559135 9.743157 -66.891806 7.125000 0.000000 0.000000 
11.792192 13.722664 19.502490 170.322401 24.410932 112.813185 7.910418 -56.763790 0.760532 25.893471 46.182160 -10.152782 16.952871 9.906252 56.977473 2.563500 -9.952400 -28.822900 2.548462 51.211719 -40.518754 29.881171 -24.520111 4.881489 -39.215779 -19.667422 60.085949 -0.461400 -4.357300 12.084100 65.155967 13.448138 8.852055 1.873366 7.133426 -27.820719 -1.624449 -2.760061 20.033845 -0.796500 -2.756900 20.534100 23.079808 5.567298 -16.156753 -3.945017 -6.776456 -5.634596 4.653857 -11.608801 -73.989867 -7.125000 0.000000 0.000000 -66.034544 -40.138417 -37.713674 -25.485302 -4.859520 -5.848978 -4.577003 9.359643 -67.125655 7.125000 0.000000 0.000000 
11.793717 13.715802 19.452322 165.926168 26.637846 110.983664 6.536429 -51.511854 2.607029 35.437505 32.998324 1.357573 12.359920 8.591937 60.753152 2.537100 -9.905000 -28.669700 10.792218 46.142175 -40.428481 32.513245 -11.448209 7.896381 -35.275326 -20.443516 60.229228 -0.459100 -4.346600 12.054000 78.123361 29.659555 -13.108203 -4.129985 -8.111601 -17.266520 -0.929424 -3.150497 18.282808 -0.647500 -2.860000 20.490700 13.288937 5.979871 -29.363698 5.520301 2.187329 -5.622544 4.363354 -11.825323 -70.503601 -7.125000 0.000000 0.000000 -77.770944 -35.303763 -39.421583 -22.655298 -7.858611 -5.870300 -4.511692 9.403408 -67.300400 7.125000 0.000000 0.000000 
11.796157 13.709550 19.396664 169.855435 21.399006 108.492727 -3.053105 -49.012224 -4.755360 41.433931 22.450132 11.683696 9.890152 7.684088 62.992990 2.487700 -9.815400 -28.381100 14.453294 41.022322 -44.999412 35.727657 1.073658 16.743318 -31.548370 -23.620596 68.324283 -0.456100 -4.332400 12.013600 55.247423 41.194405 -21.268896 -9.372934 -18.430527 -11.234602 0.037821 -3.246028 18.627137 -0.497300 -2.957900 20.462600 6.749469 8.860431 -41.928654 14.716878 6.357413 -5.553621 4.340532 -11.590155 -66.614698 -7.125000 0.000000 0.000000 -67.973136 -31.674464 -40.933136 -14.629241 -6.098813 -5.889249 -4.800847 8.564091 -67.415028 7.125000 0.000000 0.000000 
11.799207 13.703756 19.338262 166.846117 20.770489 114.025689 -8.116203 -43.006621 -11.129262 39.559718 11.846571 17.248400 13.493145 8.536043 60.519959 2.433700 -9.716300 -28.062900 17.937325 36.934551 -48.591076 30.452034 9.718729 28.267273 -23.436894 -25.669144 79.483683 -0.462400 -4.361700 12.096600 44.612540 52.415176 -43.167499 -10.718903 -18.352744 -19.236569 0.344530 -2.675195 21.692042 -0.349300 -3.049000 20.449100 4.896371 10.554034 -45.144161 18.225701 14.597061 -5.463050 3.598367 -11.234247 -62.634902 -7.125000 0.000000 0.000000 -64.264596 -28.035767 -26.587962 1.530292 25.600556 -5.952387 -4.135456 4.136212 -67.513393 7.125000 0.000000 0.000000 
11.802561 13.697351 19.280470 159.764862 16.605548 119.569784 -8.837289 -41.396616 -14.947214 32.223143 6.350925 23.559938 20.924643 10.222115 57.319674 2.361800 -9.582100 -27.633700 25.040229 25.962762 -42.211181 19.805590 14.756854 36.831790 -15.191073 -25.665181 77.543925 -0.466700 -4.381800 12.153400 22.063029 45.857739 -44.165584 4.789493 -7.507633 -36.032590 2.145773 -2.643944 20.071219 -0.206100 -3.134100 20.444200 36.061632 10.004165 -46.802508 12.279258 -13.598496 -5.489722 2.134212 -10.771089 -58.736571 -7.125000 0.000000 0.000000 -65.944919 -17.692247 -10.728173 -29.409838 -10.494115 -5.157132 -8.257957 4.499246 -66.675756 7.125000 0.000000 0.000000 
11.806069 13.692014 19.233047 157.604518 24.446034 86.577674 -2.964863 -37.272637 -3.281544 31.394944 3.621992 27.612234 19.462800 9.165036 55.060016 2.286600 -9.439200 -27.179100 24.177400 20.404140 -22.993340 13.959839 22.066082 44.304798 -7.678602 -26.376356 76.023367 -0.472900 -4.410300 12.233900 -146.368295 87.977697 98.447589 -11.635032 -21.392486 -7.493083 2.925955 -2.619731 17.614725 -0.081200 -3.200400 20.443400 10.752589 4.477570 -48.298382 -10.312193 7.366724 -5.686223 2.472944 -7.856229 -57.147818 -7.125000 0.000000 0.000000 -60.667802 -8.256727 -38.476251 -23.698458 29.214146 -5.054771 -7.401801 9.734694 -67.569972 7.125000 0.000000 0.000000 
11.809728 13.687592 19.199195 170.644066 8.893563 68.556095 -1.316455 -35.820832 5.479630 36.283811 6.052754 28.536083 13.443528 6.808081 55.959510 2.218200 -9.306600 -26.759100 20.415493 26.160266 -3.760603 11.439523 19.218611 57.936872 -9.977841 -27.458122 68.632026 -0.477600 -4.432100 12.295600 -145.135275 86.354763 113.625176 -6.071355 -58.267557 7.234341 2.669679 -2.266415 9.315946 0.021400 -3.245600 20.442400 5.586604 3.539861 -38.976332 -1.646560 7.626874 -5.853014 0.532402 -9.039004 -56.372669 -7.125000 0.000000 0.000000 -30.692399 16.674325 -27.534111 -16.869496 22.285839 -4.679935 -7.853046 10.378549 -67.540069 7.125000 0.000000 0.000000 
11.813693 13.683628 19.178457 -171.549892 5.452592 74.372058 -1.640932 -38.180597 4.099245 41.789530 14.095271 26.242504 7.350067 4.286752 60.120493 2.157700 -9.187100 -26.382200 24.994447 32.640781 -2.343254 5.624490 20.694528 63.184924 -16.186598 -29.355830 62.920951 -0.473700 -4.414000 12.244300 -150.391498 83.300078 142.734294 -10.815471 -65.563386 -1.640951 1.500431 -1.941930 5.389881 0.103700 -3.273800 20.440500 4.058297 2.737008 -37.099980 15.156693 32.771905 -5.776237 1.044838 -9.941153 -55.294222 -7.125000 0.000000 0.000000 -13.859155 22.431854 -10.986462 -5.871644 1.743061 -4.659985 -8.604271 9.671036 -67.389463 7.125000 0.000000 0.000000 
11.818115 13.680730 19.173120 -171.262572 -0.140322 91.464819 -6.616256 -40.411170 -3.172441 45.655182 24.314915 18.004103 3.689911 2.879165 64.936268 2.105500 -9.082400 -26.053500 28.375583 32.417840 -10.048825 2.493272 22.085655 63.061725 -17.900084 -29.176232 61.154418 -0.461600 -4.358100 12.086400 173.988872 73.212656 -172.686684 -13.502121 -30.686073 -14.578466 1.932997 -1.769015 4.231652 0.157400 -3.284800 20.434800 -5.651273 14.210578 -35.631394 40.314254 59.704395 -5.671921 2.539880 -9.422066 -54.379474 -7.125000 0.000000 0.000000 -17.245382 35.607745 -9.643204 20.786481 14.717511 -4.737593 -10.117534 8.035344 -66.934236 7.125000 0.000000 0.000000 
11.823300 13.675851 19.165648 176.251893 1.730069 92.622017 -11.037535 -39.752646 -7.887885 47.283800 29.017058 7.721249 1.660815 1.992091 68.227051 2.073700 -9.018000 -25.851700 29.539800 31.502565 -16.030701 1.531791 23.550374 63.587486 -17.028347 -27.310358 60.231290 -0.460500 -4.353000 12.071800 166.289419 63.209205 -160.746048 -6.863636 6.522691 -6.684039 -2.483802 -1.281420 7.023467 0.204600 -3.297900 20.429900 -5.186304 9.208071 -33.744962 42.017337 55.963768 -5.540833 4.272747 -8.937736 -53.445006 -7.125000 0.000000 0.000000 -41.661202 53.671669 -15.756847 61.048287 40.960197 -4.780503 -12.671765 5.776156 -66.185283 7.125000 0.000000 0.000000 
11.828942 13.668836 19.155279 169.508557 4.929500 90.582015 -10.413474 -40.994156 -7.499444 46.290945 32.196817 0.125471 0.916813 1.490807 69.048052 2.052100 -8.973700 -25.713100 28.723355 30.015676 -14.896061 -0.077756 25.200094 63.960037 -16.928141 -25.571818 58.014471 -0.472800 -4.410000 12.233200 173.717626 63.101615 -170.199262 -1.677546 11.822698 -1.576044 -3.474331 -0.964414 8.262646 0.242700 -3.312000 20.423600 -4.167735 7.112747 -32.988460 50.177982 42.027737 -5.437278 5.061996 -9.351328 -52.716470 -7.125000 0.000000 0.000000 -55.114204 59.768451 -21.820147 84.323548 33.612985 -4.807625 -13.212069 4.709187 -65.926208 7.125000 0.000000 0.000000 
